<svg width="86" height="50" viewBox="0 0 86 50" fill="none" xmlns="http://www.w3.org/2000/svg">
<g clip-path="url(#clip0_7016_1114)">
<mask id="mask0_7016_1114" style="mask-type:luminance" maskUnits="userSpaceOnUse" x="0" y="0" width="86" height="50">
<path d="M85.6621 0H0.337891V49.9432H85.6621V0Z" fill="white"/>
</mask>
<g mask="url(#mask0_7016_1114)">
<path fill-rule="evenodd" clip-rule="evenodd" d="M10.7986 0.620022C15.3038 0.620022 18.6541 2.90671 18.6541 6.28555C18.6541 8.91923 16.9647 10.182 15.4687 10.7793C17.9203 11.5188 20.1445 12.9295 20.1445 16.0239C20.1445 20.6029 16.0489 22.1616 11.6121 22.1616H0.337891V0.620022H10.7986ZM7.24347 8.85097H9.78043C10.7873 8.85097 11.6064 8.03186 11.6064 7.26962C11.6064 6.44483 10.8157 5.63708 9.78043 5.63708H7.24347V8.85097ZM7.24347 17.2014H10.3948C11.8282 17.2014 12.7497 16.3026 12.7497 15.2275C12.7497 14.2093 11.7657 13.322 10.5939 13.322H7.24347V17.2014ZM16.3845 24.5108C20.8954 24.5108 24.2401 26.7974 24.2401 30.1763C24.2401 32.8101 22.5507 34.0729 21.0546 34.6701C23.5063 35.4096 25.7304 36.8203 25.7304 39.9147C25.7304 44.4937 21.6348 46.0524 17.198 46.0524H5.92378V24.5108H16.3845ZM12.8294 32.7418H15.372C16.3732 32.7418 17.1923 31.9227 17.1923 31.1604C17.1923 30.3357 16.4016 29.5278 15.372 29.5278H12.8294V32.7418ZM12.8294 41.0922H15.9807C17.4142 41.0922 18.3357 40.1933 18.3357 39.1183C18.3357 38.1002 17.3515 37.2128 16.1797 37.2128H12.8294V41.0922ZM20.6906 22.1558V0.614334H38.0568V5.81911H27.5734V8.6405H36.0887V13.521H27.5734V16.9738H38.0568V22.1558H20.6906ZM38.3925 19.215L42.4937 15.3015C43.4893 16.1263 44.7633 17.099 46.3732 17.099C47.7896 17.099 48.5688 16.2799 48.5688 15.4664C48.5688 13.1513 39.2172 14.2207 39.2172 6.83162C39.2172 3.09442 42.6302 0 47.8464 0C51.322 0 53.8988 1.30831 55.5312 2.86121L51.4527 6.7463C51.4527 6.7463 50.2696 5.67121 48.6428 5.67121C47.6985 5.67121 46.7713 6.13766 46.7713 7.01933C46.7713 9.28896 56.2594 8.16838 56.2594 15.4608C56.2594 19.9829 52.3515 22.7701 47.4596 22.7701C42.6985 22.7701 40.0422 20.8305 38.3925 19.215ZM61.5722 22.1558V5.79637H55.8896V0.614334H74.166V5.79637H68.4778V22.1558H61.5722ZM25.9693 24.4937H32.8579V37.4005C32.8579 38.7087 34.1604 39.9147 35.52 39.9147C36.7998 39.9147 38.0968 38.8225 38.0968 37.3265V24.4937H44.9625V37.2411C44.9625 42.2981 40.7645 46.3367 35.3379 46.3367C29.8771 46.3367 25.9693 41.9454 25.9693 36.9681V24.4937ZM53.4493 46.0295V38.3333L45.3606 24.4937H52.323L56.9022 31.9113L61.4983 24.4937H68.4778L60.355 38.413V46.0295H53.4493Z" fill="#1C1C1C"/>
<path d="M85.6618 36.2852V49.8971H68.4774L64.416 45.8357V40.3466L68.4774 36.2852H85.6618Z" fill="#1C1C1C"/>
<path d="M66.8963 44.0044C67.4021 44.0044 67.812 43.5944 67.812 43.0886C67.812 42.5829 67.4021 42.1729 66.8963 42.1729C66.3905 42.1729 65.9805 42.5829 65.9805 43.0886C65.9805 43.5944 66.3905 44.0044 66.8963 44.0044Z" fill="#1C1C1C"/>
</g>
</g>
<defs>
<clipPath id="clip0_7016_1114">
<rect width="85.3242" height="50" fill="white" transform="translate(0.337891)"/>
</clipPath>
</defs>
</svg>
