<svg width="41" height="24" viewBox="0 0 41 24" fill="none" xmlns="http://www.w3.org/2000/svg">
<g clip-path="url(#clip0_7020_1134)">
<mask id="mask0_7020_1134" style="mask-type:luminance" maskUnits="userSpaceOnUse" x="0" y="0" width="41" height="24">
<path d="M40.9556 0H0V23.9727H40.9556V0Z" fill="white"/>
</mask>
<g mask="url(#mask0_7020_1134)">
<path fill-rule="evenodd" clip-rule="evenodd" d="M5.02116 0.297611C7.18362 0.297611 8.79178 1.39522 8.79178 3.01706C8.79178 4.28123 7.98089 4.88737 7.2628 5.17406C8.43956 5.52901 9.5072 6.20615 9.5072 7.69147C9.5072 9.88939 7.5413 10.6376 5.41161 10.6376H0V0.297611H5.02116ZM3.31468 4.24847H4.53242C5.0157 4.24847 5.40887 3.85529 5.40887 3.48942C5.40887 3.09352 5.02935 2.7058 4.53242 2.7058H3.31468V4.24847ZM3.31468 8.25666H4.8273C5.51536 8.25666 5.95768 7.82525 5.95768 7.30921C5.95768 6.82048 5.48533 6.39454 4.92287 6.39454H3.31468V8.25666ZM7.70239 11.7652C9.8676 11.7652 11.4731 12.8628 11.4731 14.4846C11.4731 15.7488 10.6621 16.355 9.94403 16.6417C11.1208 16.9966 12.1884 17.6737 12.1884 19.159C12.1884 21.357 10.2225 22.1051 8.09283 22.1051H2.68123V11.7652H7.70239ZM5.9959 15.7161H7.21638C7.69693 15.7161 8.09011 15.3229 8.09011 14.957C8.09011 14.5611 7.71058 14.1734 7.21638 14.1734H5.9959V15.7161ZM5.9959 19.7242H7.50854C8.19662 19.7242 8.63894 19.2928 8.63894 18.7768C8.63894 18.2881 8.16655 17.8621 7.60409 17.8621H5.9959V19.7242ZM9.76931 10.6348V0.294881H18.1051V2.79317H13.073V4.14744H17.1604V6.4901H13.073V8.14744H18.1051V10.6348H9.76931ZM18.2662 9.22321L20.2348 7.34471C20.7127 7.74061 21.3242 8.20751 22.097 8.20751C22.7768 8.20751 23.1508 7.81433 23.1508 7.42389C23.1508 6.31263 18.6621 6.82594 18.6621 3.27918C18.6621 1.48532 20.3003 0 22.8041 0C24.4724 0 25.7092 0.627987 26.4928 1.37338L24.5351 3.23822C24.5351 3.23822 23.9672 2.72218 23.1864 2.72218C22.7331 2.72218 22.2881 2.94608 22.2881 3.36928C22.2881 4.4587 26.8423 3.92082 26.8423 7.42116C26.8423 9.59181 24.9666 10.9297 22.6184 10.9297C20.3331 10.9297 19.058 9.99866 18.2662 9.22321ZM29.3925 10.6348V2.78226H26.6648V0.294881H35.4375V2.78226H32.7072V10.6348H29.3925ZM12.3031 11.757H15.6096V17.9522C15.6096 18.5802 16.2348 19.159 16.8874 19.159C17.5017 19.159 18.1243 18.6348 18.1243 17.9167V11.757H21.4198V17.8757C21.4198 20.3031 19.4048 22.2416 16.8 22.2416C14.1788 22.2416 12.3031 20.1338 12.3031 17.7447V11.757ZM25.4935 22.0942V18.4L21.6109 11.757H24.9529L27.1509 15.3174L29.357 11.757H32.7072L28.8082 18.4382V22.0942H25.4935Z" fill="white"/>
<path d="M40.9558 17.417V23.9507H32.7073L30.7578 22.0012V19.3665L32.7073 17.417H40.9558Z" fill="white"/>
<path d="M31.9484 21.1223C32.1912 21.1223 32.3879 20.9255 32.3879 20.6827C32.3879 20.44 32.1912 20.2432 31.9484 20.2432C31.7056 20.2432 31.5088 20.44 31.5088 20.6827C31.5088 20.9255 31.7056 21.1223 31.9484 21.1223Z" fill="white"/>
</g>
</g>
<defs>
<clipPath id="clip0_7020_1134">
<rect width="40.9556" height="24" fill="white"/>
</clipPath>
</defs>
</svg>
