<svg width="126" height="50" viewBox="0 0 126 50" fill="none" xmlns="http://www.w3.org/2000/svg">
<g clip-path="url(#clip0_7016_1097)">
<mask id="mask0_7016_1097" style="mask-type:luminance" maskUnits="userSpaceOnUse" x="0" y="0" width="126" height="50">
<path d="M125.189 0H0.810547V49.8423H125.189V0Z" fill="white"/>
</mask>
<g mask="url(#mask0_7016_1097)">
<path d="M79.5708 26.4479C73.9174 26.6429 70.4082 27.6827 70.4082 31.3867C70.4082 33.7912 72.3577 36.3904 77.2313 36.3904C83.7947 36.3904 87.2388 32.8163 87.2388 26.9678V26.3181C84.9644 26.3181 82.1052 26.383 79.5708 26.4479ZM93.4773 34.181C93.4773 36.0006 93.5422 37.7551 93.6721 39.3798H87.8888C87.7587 38.08 87.6937 36.7153 87.6937 35.4807C84.5746 39.3148 80.8054 40.4196 75.6718 40.4196C67.9388 40.4196 63.8447 36.3904 63.8447 31.6467C63.8447 24.8234 69.4335 22.484 79.1159 22.2241C81.7803 22.1591 84.7696 22.1591 87.2388 22.1591V21.5093C87.2388 16.9604 84.3146 15.0759 79.246 15.0759C75.4768 15.0759 72.7475 16.6355 72.4226 19.2999H65.8594C66.5741 12.6066 73.5922 10.917 79.7659 10.917C87.1738 10.917 93.4124 13.5813 93.4124 21.3793V34.181H93.4773Z" fill="#1C1C1C"/>
<path d="M25.6342 23.1343C25.3743 17.2858 21.2153 15.1414 16.6665 15.1414C11.8577 15.0764 7.95871 17.5458 7.30888 23.1343H25.6342ZM7.17891 27.2933C7.50383 32.9468 11.4028 36.3259 16.7964 36.3259C20.5005 36.3259 23.8147 34.8313 24.9194 31.5171H31.3528C30.0531 38.1455 22.9699 40.4199 16.8614 40.4199C5.74928 40.4199 0.810547 34.3114 0.810547 26.0584C0.810547 16.9609 5.87925 10.9824 16.9264 10.9824C25.6991 10.9824 32.1976 15.5963 32.1976 25.6037V27.2933H7.17891Z" fill="#1C1C1C"/>
<path d="M48.1838 36.1308C53.9671 36.1308 57.9313 31.9719 57.9313 25.6684C57.9313 19.365 53.9671 15.2061 48.1838 15.2061C42.4002 15.2061 38.4363 19.365 38.4363 25.6684C38.4363 31.9719 42.4002 36.1308 48.1838 36.1308ZM32.1977 0H38.4363V15.661C41.4905 12.0219 45.7144 10.9822 49.8733 10.9822C56.8266 10.9822 64.5594 15.661 64.5594 25.7985C64.5594 34.2463 58.4509 40.4197 49.8082 40.4197C45.2594 40.4197 41.0355 38.795 38.3711 35.6109C38.3711 36.9104 38.3062 38.2102 38.1763 39.4448H32.0029C32.1328 37.4953 32.1977 35.0261 32.1977 33.0114V0Z" fill="#1C1C1C"/>
<path d="M125.189 12.0215L105.889 49.9068H98.9354L104.459 39.3794L89.9678 12.0215H97.2459L107.903 33.4011L118.561 12.0215H125.189Z" fill="#1C1C1C"/>
</g>
</g>
<defs>
<clipPath id="clip0_7016_1097">
<rect width="124.378" height="50" fill="white" transform="translate(0.810547)"/>
</clipPath>
</defs>
</svg>
