<svg width="106" height="50" viewBox="0 0 106 50" fill="none" xmlns="http://www.w3.org/2000/svg">
<g clip-path="url(#clip0_7016_1280)">
<mask id="mask0_7016_1280" style="mask-type:luminance" maskUnits="userSpaceOnUse" x="0" y="0" width="106" height="50">
<path d="M105.521 0H0.478516V49.8863H105.521V0Z" fill="white"/>
</mask>
<g mask="url(#mask0_7016_1280)">
<path d="M11.756 3.85264V17.97C11.756 17.97 16.7309 17.97 19.3929 17.7647C21.4869 17.402 21.8702 17.1967 22.2534 15.1027L23.0267 12.037H25.2985L24.9153 18.7364L25.1206 25.6001H22.8212L22.2534 22.9245C21.6853 21.0152 20.9121 20.6251 19.3929 20.4472C17.4837 20.2419 11.756 20.2419 11.756 20.2419V32.0806C11.756 34.3594 12.9125 35.331 15.5744 35.331H23.5945C26.0718 35.331 28.549 35.1258 30.0956 31.5125L32.1691 26.9209H34.092C33.8935 27.8789 32.9355 36.2823 32.7576 38.1779C32.7576 38.1779 25.5038 37.993 22.4586 37.993H8.70393L0.505859 38.1779V36.1043L3.16784 35.5159C5.09076 35.1258 5.65874 34.5577 5.65874 33.0318C5.65874 33.0318 5.86404 27.8789 5.86404 19.2839C5.86404 10.7163 5.65874 5.55659 5.65874 5.55659C5.65874 3.8458 5.09076 3.46258 3.16784 3.07937L0.505859 2.51138V0.417394L8.52601 0.58163H23.7931C26.845 0.58163 31.9842 0.0341797 31.9842 0.0341797C31.9842 0.0341797 31.7996 3.26414 31.5941 10.9011H29.5002L28.7338 8.21857C27.9811 4.79014 26.8382 3.07937 24.7305 3.07937H12.7277C11.756 3.07937 11.756 3.26414 11.756 3.85264ZM42.6664 5.35813H44.9588V13.3783L52.7941 12.9951L52.4109 16.6288L44.7739 16.0402V30.1781C44.7739 34.1745 46.1153 35.7211 48.4078 35.7211C50.488 35.7211 52.0277 34.5646 52.5958 33.6066L53.7317 34.9478C52.5958 37.6098 49.3658 38.951 46.3 38.951C42.5021 38.951 39.416 36.6724 39.416 32.2858V16.2387H34.8584V14.3363C38.6836 13.9463 41.5305 11.6538 42.6664 5.35813ZM59.0899 29.9728L60.616 33.6066C61.1838 35.1258 62.5252 36.6724 65.5704 36.6724C68.8208 36.6724 70.1553 34.9478 70.1553 32.8539C70.1553 26.3529 57.3653 28.2621 57.3653 19.4892C57.3653 14.5348 61.3687 12.2218 66.5214 12.2218C68.8208 12.2218 72.2492 12.605 73.9737 13.3783C73.5906 15.2875 73.3851 17.7647 73.3851 19.674L71.4964 19.8587L70.1553 16.0402C69.7721 15.1027 68.2324 14.3295 66.3368 14.3295C64.0443 14.3295 61.7519 15.2875 61.7519 17.7647C61.7519 23.6772 74.9317 22.3497 74.9317 31.1293C74.9317 36.1043 70.5454 38.7663 65.1872 38.7663C61.1838 38.7663 57.1601 37.2197 57.1601 37.2197C57.5502 34.9478 57.3653 32.4707 57.1601 29.9728H59.0899ZM73.9805 48.2919C74.5485 46.198 74.9317 43.536 75.3149 41.0382L77.409 40.8535L78.1821 44.8566C78.367 45.8146 78.9349 46.5812 80.4609 46.5812C82.9382 46.5812 86.1887 45.0619 89.2475 39.7176C87.8927 36.4669 83.8893 25.9833 80.2557 17.9632C79.3044 15.8555 79.1198 15.6707 77.799 15.2875L76.8273 14.918V12.9882L82.5687 13.1935L89.617 12.8103V14.7195L87.8926 15.1027C86.5513 15.2875 86.004 16.0402 86.004 16.8135C86.004 17.012 86.004 17.1967 86.1817 17.58C86.5513 18.7364 89.617 27.3108 91.9095 33.0386C93.805 29.0354 97.4389 20.064 98.0067 18.538C98.212 17.7647 98.3899 17.58 98.3899 17.012C98.3899 16.0402 97.8221 15.4723 96.5013 15.1027L95.1462 14.7195V12.8103L100.504 12.9951L105.459 12.8103V14.7195L104.501 15.4723C102.599 16.2387 102.393 16.4235 101.641 17.9632L93.2508 37.6029C88.2758 48.8737 83.1229 49.8316 79.5029 49.8316C77.2105 49.8316 75.4859 49.2432 73.9805 48.2919Z" fill="#1C1C1C"/>
</g>
</g>
<defs>
<clipPath id="clip0_7016_1280">
<rect width="105.042" height="50" fill="white" transform="translate(0.478516)"/>
</clipPath>
</defs>
</svg>
