<svg width="47" height="15" viewBox="0 0 47 15" fill="none" xmlns="http://www.w3.org/2000/svg">
<path d="M42.9046 9.76333L46.9506 5.22033H42.3236L40.6203 7.16866L38.854 5.22033H30.6406V3.84366H34.9736V0.266663H23.7363V5.46766C23.0628 4.94969 22.2285 4.68535 21.3796 4.721C20.3426 4.71219 19.3353 5.06723 18.533 5.72433C17.9515 6.20353 17.4884 6.81036 17.1796 7.49766C16.8511 6.7558 16.3348 6.11241 15.6816 5.631C14.7586 4.98891 13.6531 4.6616 12.5293 4.69766C11.7761 4.66811 11.0255 4.80406 10.3305 5.09593C9.63549 5.38781 9.01292 5.82851 8.50663 6.387V5.22033H4.48397V3.84366H8.88463V0.266663H0.339966V14.3483H4.48397V8.65966H7.4473C7.38293 9.01066 7.35091 9.36682 7.35163 9.72366C7.34106 10.4046 7.46926 11.0806 7.7284 11.7104C7.98755 12.3402 8.37222 12.9107 8.85897 13.387C9.85456 14.3191 11.1726 14.8293 12.5363 14.8103C13.6086 14.8398 14.6652 14.5472 15.5696 13.9703C16.2694 13.4894 16.8323 12.8349 17.203 12.071C17.4563 12.6094 17.8013 13.0997 18.2226 13.52C19.0706 14.3677 20.2203 14.8444 21.4193 14.8453C22.2837 14.8441 23.1144 14.5099 23.7386 13.912V14.3553H38.728L40.464 12.3907L42.214 14.3553H47.0066L42.9046 9.76333ZM12.5363 7.276C12.8256 7.25732 13.1132 7.33204 13.3569 7.48914C13.6005 7.64625 13.7873 7.87744 13.8896 8.14866H11.218C11.3268 7.88917 11.5102 7.66778 11.7448 7.51245C11.9795 7.35713 12.2549 7.27484 12.5363 7.276ZM13.9596 11.1843L13.8756 11.301C13.7482 11.5357 13.5506 11.7249 13.3105 11.842C13.0704 11.9591 12.7998 11.9984 12.5363 11.9543C12.1774 11.9405 11.8339 11.8054 11.5618 11.571C11.2896 11.3366 11.1051 11.0169 11.0383 10.664H16.7713C16.8024 10.8398 16.8405 11.0132 16.8856 11.1843H13.9596ZM22.096 11.7373C21.861 11.7172 21.6323 11.6505 21.4233 11.5412C21.2142 11.4319 21.029 11.2822 20.8783 11.1007C20.7277 10.9192 20.6146 10.7096 20.5456 10.484C20.4766 10.2584 20.4532 10.0214 20.4766 9.78666C20.4766 8.739 20.9783 7.68666 22.096 7.68666C23.5403 7.68666 23.6523 9.299 23.6523 9.78666C23.6523 10.7293 23.244 11.7373 22.096 11.7373ZM34.423 13.7953H27.4626V0.817329H34.423V3.28366H30.0946V5.757H34.423V8.11366H30.0946V11.3243H34.423V13.7953ZM30.643 10.762V8.648H34.9736V6.20266L38.154 9.77733L34.9736 13.3497V10.783L30.643 10.762ZM40.4663 11.546L38.483 13.786H35.3096L38.889 9.768L35.3096 5.75466H38.6066L40.6273 7.98066L42.571 5.75466H45.7256L42.165 9.75867L45.777 13.7953H42.4636L40.4663 11.546Z" fill="black"/>
</svg>
