<svg width="132" height="32" viewBox="0 0 132 32" fill="none" xmlns="http://www.w3.org/2000/svg">
<rect x="16" y="6.82843" width="12.973" height="12.973" transform="rotate(45 16 6.82843)" stroke="#6356FB" stroke-width="4"/>
<rect x="16" y="2.12132" width="19.6274" height="19.6274" transform="rotate(45 16 2.12132)" stroke="#4A3AFF" stroke-width="3"/>
<path d="M40.5594 24L36.2394 7.536H40.0314L42.4314 17.352C42.4794 17.496 42.5274 17.712 42.5754 18C42.6234 18.272 42.6714 18.56 42.7194 18.864C42.7674 19.168 42.8074 19.44 42.8394 19.68H42.9594C42.9914 19.504 43.0154 19.304 43.0314 19.08C43.0634 18.856 43.0954 18.64 43.1274 18.432C43.1754 18.208 43.2154 18 43.2474 17.808C43.2954 17.616 43.3274 17.464 43.3434 17.352L45.5754 7.536H49.8474L52.1274 17.352C52.1754 17.512 52.2234 17.728 52.2714 18C52.3194 18.272 52.3674 18.56 52.4154 18.864C52.4634 19.168 52.5034 19.44 52.5354 19.68H52.6554C52.6874 19.504 52.7194 19.312 52.7514 19.104C52.7994 18.896 52.8394 18.688 52.8714 18.48C52.9194 18.256 52.9674 18.048 53.0154 17.856C53.0634 17.664 53.1034 17.496 53.1354 17.352L55.5114 7.536H58.9434L54.5994 24H50.5194L48.0954 13.872C48.0474 13.648 47.9914 13.392 47.9274 13.104C47.8794 12.8 47.8314 12.504 47.7834 12.216C47.7354 11.928 47.6954 11.672 47.6634 11.448H47.5674C47.5354 11.672 47.4954 11.936 47.4474 12.24C47.4154 12.544 47.3674 12.84 47.3034 13.128C47.2554 13.416 47.2074 13.664 47.1594 13.872L44.7594 24H40.5594ZM65.1861 24.288C63.7941 24.288 62.6261 24.056 61.6821 23.592C60.7381 23.112 60.0261 22.384 59.5461 21.408C59.0661 20.432 58.8261 19.192 58.8261 17.688C58.8261 16.168 59.0661 14.928 59.5461 13.968C60.0261 12.992 60.7301 12.272 61.6581 11.808C62.6021 11.328 63.7541 11.088 65.1141 11.088C66.3941 11.088 67.4741 11.32 68.3541 11.784C69.2341 12.232 69.8981 12.936 70.3461 13.896C70.7941 14.84 71.0181 16.064 71.0181 17.568V18.432H62.2101C62.2421 19.168 62.3541 19.792 62.5461 20.304C62.7541 20.816 63.0661 21.2 63.4821 21.456C63.9141 21.696 64.4821 21.816 65.1861 21.816C65.5701 21.816 65.9141 21.768 66.2181 21.672C66.5381 21.576 66.8101 21.432 67.0341 21.24C67.2581 21.048 67.4341 20.808 67.5621 20.52C67.6901 20.232 67.7541 19.904 67.7541 19.536H71.0181C71.0181 20.336 70.8741 21.032 70.5861 21.624C70.2981 22.216 69.8981 22.712 69.3861 23.112C68.8741 23.496 68.2581 23.792 67.5381 24C66.8341 24.192 66.0501 24.288 65.1861 24.288ZM62.2581 16.32H67.5861C67.5861 15.84 67.5221 15.424 67.3941 15.072C67.2821 14.72 67.1221 14.432 66.9141 14.208C66.7061 13.984 66.4501 13.824 66.1461 13.728C65.8581 13.616 65.5301 13.56 65.1621 13.56C64.5541 13.56 64.0421 13.664 63.6261 13.872C63.2261 14.064 62.9141 14.368 62.6901 14.784C62.4821 15.184 62.3381 15.696 62.2581 16.32ZM80.1617 24.288C79.2017 24.288 78.2897 24.192 77.4257 24C76.5617 23.808 75.7937 23.504 75.1217 23.088C74.4657 22.656 73.9457 22.12 73.5617 21.48C73.1937 20.824 73.0097 20.032 73.0097 19.104C73.0097 19.024 73.0097 18.944 73.0097 18.864C73.0097 18.768 73.0177 18.696 73.0337 18.648H76.5857C76.5697 18.696 76.5617 18.76 76.5617 18.84C76.5617 18.92 76.5617 18.992 76.5617 19.056C76.5617 19.568 76.6977 20 76.9697 20.352C77.2577 20.704 77.6737 20.968 78.2177 21.144C78.7617 21.32 79.3937 21.408 80.1137 21.408C80.5777 21.408 80.9857 21.384 81.3377 21.336C81.7057 21.272 82.0257 21.192 82.2977 21.096C82.5857 20.984 82.8177 20.856 82.9937 20.712C83.1857 20.568 83.3217 20.4 83.4017 20.208C83.4977 20.016 83.5457 19.8 83.5457 19.56C83.5457 19.128 83.4017 18.776 83.1137 18.504C82.8417 18.232 82.4577 18 81.9617 17.808C81.4817 17.616 80.9377 17.44 80.3297 17.28C79.7217 17.12 79.0977 16.96 78.4577 16.8C77.8177 16.624 77.1937 16.416 76.5857 16.176C75.9777 15.92 75.4337 15.616 74.9537 15.264C74.4737 14.912 74.0897 14.464 73.8017 13.92C73.5137 13.376 73.3697 12.72 73.3697 11.952C73.3697 11.136 73.5377 10.432 73.8737 9.84C74.2257 9.248 74.7137 8.76 75.3377 8.376C75.9617 7.992 76.6817 7.712 77.4977 7.536C78.3137 7.344 79.2017 7.248 80.1617 7.248C81.0577 7.248 81.9057 7.344 82.7057 7.536C83.5057 7.712 84.2097 8 84.8177 8.4C85.4257 8.8 85.8977 9.304 86.2337 9.912C86.5857 10.52 86.7617 11.24 86.7617 12.072V12.36H83.2817V12.168C83.2817 11.736 83.1537 11.368 82.8977 11.064C82.6417 10.76 82.2817 10.52 81.8177 10.344C81.3537 10.168 80.8097 10.08 80.1857 10.08C79.5137 10.08 78.9377 10.144 78.4577 10.272C77.9937 10.4 77.6337 10.592 77.3777 10.848C77.1377 11.088 77.0177 11.376 77.0177 11.712C77.0177 12.096 77.1537 12.416 77.4257 12.672C77.7137 12.912 78.0977 13.128 78.5777 13.32C79.0737 13.496 79.6257 13.656 80.2337 13.8C80.8417 13.944 81.4657 14.104 82.1057 14.28C82.7457 14.456 83.3697 14.664 83.9777 14.904C84.5857 15.144 85.1297 15.448 85.6097 15.816C86.0897 16.168 86.4737 16.608 86.7617 17.136C87.0497 17.664 87.1937 18.296 87.1937 19.032C87.1937 20.296 86.8897 21.312 86.2817 22.08C85.6737 22.848 84.8417 23.408 83.7857 23.76C82.7297 24.112 81.5217 24.288 80.1617 24.288ZM89.7548 24V6.648H93.0908V12.768H93.2588C93.5308 12.432 93.8508 12.144 94.2188 11.904C94.6028 11.648 95.0268 11.448 95.4908 11.304C95.9708 11.16 96.4908 11.088 97.0508 11.088C97.8828 11.088 98.6108 11.24 99.2348 11.544C99.8588 11.848 100.339 12.328 100.675 12.984C101.027 13.64 101.203 14.496 101.203 15.552V24H97.8668V16.08C97.8668 15.68 97.8188 15.344 97.7228 15.072C97.6268 14.784 97.4828 14.552 97.2908 14.376C97.1148 14.184 96.8908 14.048 96.6188 13.968C96.3468 13.888 96.0428 13.848 95.7068 13.848C95.2108 13.848 94.7628 13.968 94.3628 14.208C93.9628 14.448 93.6508 14.776 93.4268 15.192C93.2028 15.608 93.0908 16.088 93.0908 16.632V24H89.7548ZM110 24.288C108.624 24.288 107.456 24.056 106.496 23.592C105.536 23.112 104.808 22.384 104.312 21.408C103.816 20.416 103.568 19.176 103.568 17.688C103.568 16.168 103.816 14.928 104.312 13.968C104.808 12.992 105.536 12.272 106.496 11.808C107.456 11.328 108.624 11.088 110 11.088C111.408 11.088 112.584 11.328 113.528 11.808C114.488 12.272 115.216 12.992 115.712 13.968C116.208 14.928 116.456 16.168 116.456 17.688C116.456 19.176 116.208 20.416 115.712 21.408C115.216 22.384 114.488 23.112 113.528 23.592C112.584 24.056 111.408 24.288 110 24.288ZM110 21.696C110.736 21.696 111.32 21.56 111.752 21.288C112.2 21.016 112.528 20.6 112.736 20.04C112.944 19.48 113.048 18.792 113.048 17.976V17.4C113.048 16.584 112.944 15.896 112.736 15.336C112.528 14.776 112.2 14.36 111.752 14.088C111.32 13.8 110.736 13.656 110 13.656C109.28 13.656 108.696 13.8 108.248 14.088C107.816 14.36 107.496 14.776 107.288 15.336C107.08 15.896 106.976 16.584 106.976 17.4V17.976C106.976 18.792 107.08 19.48 107.288 20.04C107.496 20.6 107.816 21.016 108.248 21.288C108.696 21.56 109.28 21.696 110 21.696ZM118.911 28.272V11.376H121.647L121.935 13.08H122.103C122.519 12.392 123.063 11.888 123.735 11.568C124.407 11.248 125.151 11.088 125.967 11.088C127.023 11.088 127.927 11.32 128.679 11.784C129.447 12.248 130.031 12.968 130.431 13.944C130.847 14.92 131.055 16.176 131.055 17.712C131.055 19.2 130.847 20.432 130.431 21.408C130.015 22.384 129.431 23.112 128.679 23.592C127.943 24.056 127.079 24.288 126.087 24.288C125.543 24.288 125.039 24.224 124.575 24.096C124.111 23.984 123.695 23.8 123.327 23.544C122.959 23.288 122.647 22.976 122.391 22.608H122.247V28.272H118.911ZM124.935 21.552C125.607 21.552 126.135 21.424 126.519 21.168C126.919 20.896 127.207 20.496 127.383 19.968C127.559 19.424 127.647 18.76 127.647 17.976V17.424C127.647 16.624 127.559 15.96 127.383 15.432C127.207 14.888 126.919 14.488 126.519 14.232C126.135 13.96 125.607 13.824 124.935 13.824C124.311 13.824 123.799 13.968 123.399 14.256C122.999 14.544 122.703 14.96 122.511 15.504C122.319 16.048 122.223 16.704 122.223 17.472V17.88C122.223 18.44 122.279 18.952 122.391 19.416C122.503 19.864 122.663 20.248 122.871 20.568C123.095 20.888 123.375 21.136 123.711 21.312C124.047 21.472 124.455 21.552 124.935 21.552Z" fill="#242424"/>
</svg>
