<svg width="118" height="50" viewBox="0 0 118 50" fill="none" xmlns="http://www.w3.org/2000/svg">
<g clip-path="url(#clip0_7016_1008)">
<path d="M17.831 0.162472C17.831 0.243706 14.2567 10.2356 9.87002 22.3802C5.48335 34.5248 1.46223 45.7352 0.9342 47.238L0 50L5.32088 49.8781L10.6011 49.7563L11.3322 47.9285C11.6978 46.9131 13.8099 41.1048 16.0032 35.0122C18.1966 28.9196 20.0244 24.0049 20.065 24.0455C20.1462 24.1267 19.8619 29.2851 19.4151 35.5402C19.0089 41.7953 18.6434 47.6036 18.6434 48.4159V49.9594H23.883C28.4728 49.9594 29.1633 49.8781 29.407 49.2283C29.5288 48.8627 33.5093 37.8554 38.1803 24.8578C42.892 11.8197 46.8318 0.893585 46.9537 0.568645C47.1568 0.081234 46.3444 0 41.7953 0.081234L36.4338 0.203087L34.4435 5.68644C33.3469 8.69212 31.316 14.3379 29.935 18.1966C28.5946 22.0552 27.3761 25.1422 27.2949 25.0203C27.1324 24.8578 28.0666 8.8546 28.6353 2.72137L28.879 0H23.355C20.3087 0 17.831 0.081234 17.831 0.162472Z" fill="#1C1C1C"/>
<path d="M48.9028 0.690495C48.781 1.09667 44.8411 12.0227 40.1701 24.9797C35.4991 37.9366 31.5592 48.8627 31.4374 49.2282C31.153 49.9187 31.5998 49.9594 37.5706 49.9594H44.0288L52.6803 25.8732C57.4325 12.6726 61.413 1.42161 61.5755 0.893582L61.7785 0H55.4829C49.8777 0 49.1465 0.081234 48.9028 0.690495Z" fill="#1C1C1C"/>
<path d="M63.6885 1.09667C62.0638 5.32088 46.2637 49.3907 46.2637 49.7156C46.2637 49.8375 49.1069 49.9187 52.6406 49.8781L58.9769 49.7563L62.47 40.0081C64.379 34.6466 66.0037 30.6255 66.085 31.0723C66.1256 31.5191 65.8413 35.9464 65.4351 40.9017L64.704 49.9594H71.0809H77.4172L77.7015 47.6035C77.8234 46.3444 78.3108 40.1706 78.7982 33.9155L79.6512 22.5426L86.3937 12.3883C90.0898 6.78311 93.4611 1.74655 93.9079 1.09667L94.639 0H88.8307H83.0224L76.7673 9.342C73.3149 14.5004 70.431 18.6027 70.3498 18.5621C70.2686 18.4809 71.6902 14.3379 73.4773 9.38262C75.2645 4.4273 76.7267 0.284321 76.7267 0.203087C76.7267 0.081234 73.8835 0 70.431 0H64.1353L63.6885 1.09667Z" fill="#1C1C1C"/>
<path d="M94.4764 3.93989C93.6641 6.13323 89.7242 17.0593 85.7031 28.2291C81.682 39.3989 78.2701 48.8627 78.1483 49.2689C77.8639 49.9188 78.4732 49.9594 88.9525 49.8782L100.041 49.7563L101.584 45.4915C102.437 43.1357 103.249 40.9423 103.371 40.5362C103.534 39.9675 103.087 39.8863 99.1881 39.9269C96.7916 39.9269 94.8014 39.7644 94.7201 39.5613C94.6389 39.3582 95.37 37.0024 96.3448 34.3217L98.132 29.4476L102.396 29.3258L106.702 29.2039L108.367 24.5329C109.301 21.974 110.032 19.6588 110.032 19.4557C110.032 19.2526 108.205 19.0902 105.971 19.0902C103.737 19.0902 101.909 19.0089 101.909 18.9277C101.909 18.8465 102.356 17.5061 102.924 16.0033C103.493 14.4598 104.224 12.4289 104.59 11.4541L105.24 9.74818H109.87C112.429 9.74818 114.5 9.70756 114.5 9.62632C114.5 9.54509 115.232 7.51422 116.125 5.03656C117.019 2.59951 117.75 0.487407 117.75 0.284321C117.75 0.121853 112.835 0 106.824 0H95.898L94.4764 3.93989Z" fill="#1C1C1C"/>
</g>
<defs>
<clipPath id="clip0_7016_1008">
<rect width="118" height="50" fill="white"/>
</clipPath>
</defs>
</svg>
