<svg width="128" height="50" viewBox="0 0 128 50" fill="none" xmlns="http://www.w3.org/2000/svg">
<g clip-path="url(#clip0_7016_1254)">
<path d="M71.1814 0L48.5974 16.4753L39.849 10.1403L48.5974 3.65645L54.8127 8.31207L57.3456 6.48385L48.5974 0L34.7617 10.1403L48.5974 20.1531L71.1814 3.65645L79.9296 10.1403L71.1814 16.4753L64.9658 11.9685L62.4329 13.7968L71.1814 20.1531L85.0168 10.1403L71.1814 0Z" fill="#1C1C1C"/>
<path d="M19.064 34.4562C16.2392 33.0544 13.2869 32.2047 10.3346 32.2047C8.35933 32.2047 6.80884 32.4809 5.83183 32.9057C4.70614 33.3304 4.28134 34.0314 4.28134 34.8809C4.28134 35.7304 4.85481 36.4314 5.98053 36.7075C6.83009 36.9837 8.08323 37.1322 9.93106 37.2809C12.6072 37.4297 14.4338 37.5572 15.2834 37.7057C17.6835 37.9819 19.5101 38.6827 20.6358 39.5325C21.7615 40.3819 22.3349 41.635 22.3349 43.1855C22.3349 45.2883 21.4853 46.8388 19.6588 47.9643C17.8322 49.0901 15.156 49.6636 11.7789 49.6636C6.85134 49.6636 2.90078 48.5378 0.224609 46.4353L2.05121 44.0353C5.15219 45.8618 8.38058 46.86 11.9063 46.86C14.1577 46.86 15.9843 46.584 17.2587 45.883C18.3844 45.3095 19.0853 44.4812 19.0853 43.3554C19.0853 42.0812 18.2357 41.2529 16.6852 40.8279C15.8357 40.5518 13.5843 40.4031 10.0585 40.1271C6.83009 39.8511 4.55747 39.4261 3.30433 38.8526C1.75385 38.1518 1.05295 36.8774 1.05295 35.0508C1.05295 33.2243 1.90253 31.8225 3.58045 30.6756C4.98226 29.9746 7.38231 29.5498 10.4833 29.5498C14.71 29.5498 18.2357 30.5268 21.0393 32.3745L19.064 34.4562Z" fill="#1C1C1C"/>
<path d="M30.0447 29.9531H26.8164V49.3871H30.0447V29.9531Z" fill="#1C1C1C"/>
<path d="M62.8594 49.3871H59.6099V33.4789H59.4824L49.4785 46.1376L39.4747 33.4789H39.3474V49.3871H36.0977V29.9531H40.1757L49.4785 41.6348L58.7816 29.9531H62.8594V49.3871Z" fill="#1C1C1C"/>
<path d="M89.3244 39.6597C89.3244 37.4085 88.3473 35.5819 86.3721 34.1587C84.8216 32.8845 82.7188 32.3322 80.3188 32.3322C77.6425 32.3322 75.3912 33.0329 73.692 34.435C71.9928 35.8368 71.1644 37.5358 71.1644 39.6386C71.1644 41.8898 72.0142 43.5891 73.692 44.9909C75.3912 46.3926 77.6425 46.9661 80.3188 46.9661C83.1435 46.9661 85.2463 46.2653 86.9456 44.9909C88.4746 43.6102 89.3244 41.7837 89.3244 39.6597ZM92.7014 39.6597C92.7014 42.8883 91.4269 45.437 88.7509 47.4123C86.4994 49.1113 83.6746 49.9398 80.17 49.9398C76.793 49.9398 73.8407 49.0901 71.5894 47.4123C68.9132 45.437 67.6387 42.9095 67.6387 39.6597C67.6387 36.5587 68.9132 34.0314 71.5894 32.0562C73.9894 30.3569 76.793 29.3799 80.17 29.3799C83.5471 29.3799 86.3721 30.2294 88.6234 32.0562C91.4484 33.8827 92.7014 36.5587 92.7014 39.6597Z" fill="#1C1C1C"/>
<path d="M116.511 29.9531V45.8613L101.579 29.9531H97.6289V49.3871H100.879V33.4789L115.661 49.3871H119.739V29.9531H116.511Z" fill="#1C1C1C"/>
<path d="M125.068 29.1047C123.931 29.1047 122.945 30.091 122.945 31.2272C122.945 32.3634 123.931 33.3494 125.068 33.3494C126.204 33.3494 127.19 32.3634 127.19 31.2272C127.212 30.091 126.354 29.1047 125.068 29.1047ZM125.068 33.9282C123.653 33.9282 122.517 32.792 122.517 31.3772C122.517 29.9624 123.653 28.8262 125.068 28.8262C126.482 28.8262 127.619 29.9624 127.619 31.3772C127.619 32.792 126.482 33.9282 125.068 33.9282ZM125.646 32.792H126.075L125.368 31.6558C125.796 31.5058 126.075 31.2272 126.075 30.7984C126.075 30.3695 125.796 29.941 125.218 29.941H124.232V32.792H124.66V31.6558H125.089L125.646 32.792ZM124.639 31.2486V30.2624H125.218C125.496 30.2624 125.796 30.4127 125.796 30.6912C125.796 30.9698 125.646 31.12 125.218 31.12H124.639V31.2486Z" fill="#1C1C1C"/>
</g>
<defs>
<clipPath id="clip0_7016_1254">
<rect width="127.551" height="50" fill="white" transform="translate(0.224609)"/>
</clipPath>
</defs>
</svg>
