<svg width="13" height="12" viewBox="0 0 13 12" fill="none" xmlns="http://www.w3.org/2000/svg">
<path d="M12.1257 5.49191L9.62526 7.64948L10.387 10.8761C10.4291 11.0513 10.4183 11.235 10.3559 11.404C10.2936 11.573 10.1826 11.7197 10.037 11.8257C9.89128 11.9316 9.71748 11.992 9.53749 11.9993C9.3575 12.0065 9.17941 11.9602 9.02572 11.8663L6.21971 10.1393L3.41204 11.8663C3.25836 11.9597 3.08049 12.0055 2.90081 11.998C2.72114 11.9905 2.54769 11.93 2.40232 11.8242C2.25695 11.7183 2.14616 11.5718 2.08389 11.4031C2.02161 11.2344 2.01065 11.051 2.05238 10.8761L2.81695 7.64948L0.316544 5.49191C0.180577 5.3744 0.0822424 5.21944 0.0338222 5.04637C-0.0145981 4.8733 -0.0109585 4.68981 0.0442864 4.5188C0.0995313 4.34779 0.203933 4.19684 0.344453 4.08481C0.484974 3.97278 0.655385 3.90464 0.834405 3.88888L4.11271 3.62439L5.37736 0.563902C5.44581 0.397107 5.56231 0.254435 5.71206 0.154024C5.86181 0.0536135 6.03803 0 6.21832 0C6.39862 0 6.57484 0.0536135 6.72459 0.154024C6.87433 0.254435 6.99084 0.397107 7.05929 0.563902L8.32338 3.62439L11.6017 3.88888C11.7811 3.90405 11.952 3.97182 12.093 4.08369C12.234 4.19557 12.3389 4.34657 12.3945 4.51779C12.4501 4.68901 12.4539 4.87282 12.4055 5.0462C12.3571 5.21959 12.2586 5.37483 12.1223 5.49247L12.1257 5.49191Z" fill="#F9B506"/>
</svg>
